<svg width="600" height="400" viewBox="0 0 600 400" fill="none" xmlns="http://www.w3.org/2000/svg">
  <!-- Fondo con gradiente -->
  <rect width="600" height="400" rx="20" fill="url(#paint0_linear)" fill-opacity="0.1"/>

  <!-- Tarjetas apiladas -->
  <g filter="url(#shadow)">
    <rect x="150" y="100" width="300" height="200" rx="16" fill="white" transform="rotate(-6 300 200)"/>
    <rect x="170" y="120" width="260" height="20" rx="4" fill="#F3F4F6" transform="rotate(-6 300 200)"/>
    <rect x="170" y="150" width="200" height="20" rx="4" fill="#F3F4F6" transform="rotate(-6 300 200)"/>
  </g>

  <g filter="url(#shadow)">
    <rect x="180" y="140" width="300" height="200" rx="16" fill="white" transform="rotate(3 300 200)"/>
    <rect x="200" y="160" width="260" height="20" rx="4" fill="#F3F4F6" transform="rotate(3 300 200)"/>
    <rect x="200" y="190" width="200" height="20" rx="4" fill="#F3F4F6" transform="rotate(3 300 200)"/>
  </g>

  <!-- Iconos flotantes -->
  <circle cx="150" cy="100" r="20" fill="url(#paint1_linear)"/>
  <circle cx="450" cy="300" r="15" fill="url(#paint1_linear)"/>
  <circle cx="400" cy="80" r="10" fill="url(#paint1_linear)"/>

  <defs>
    <linearGradient id="paint0_linear" x1="0" y1="0" x2="600" y2="400" gradientUnits="userSpaceOnUse">
      <stop stop-color="#9333EA"/>
      <stop offset="1" stop-color="#EC4899"/>
    </linearGradient>
    <linearGradient id="paint1_linear" x1="0" y1="0" x2="40" y2="40" gradientUnits="userSpaceOnUse">
      <stop stop-color="#9333EA"/>
      <stop offset="1" stop-color="#EC4899"/>
    </linearGradient>
    <filter id="shadow" x="0" y="0" width="600" height="400" filterUnits="userSpaceOnUse">
      <feDropShadow dx="0" dy="4" stdDeviation="8" flood-opacity="0.1"/>
    </filter>
  </defs>
</svg>
